<mxfile host="app.diagrams.net" modified="2024-02-05T10:45:21.444Z" agent="Mozilla/5.0 (Windows NT 10.0; Win64; x64) AppleWebKit/537.36 (KHTML, like Gecko) Chrome/121.0.0.0 Safari/537.36" version="23.1.1" etag="IKNTpIVd9ZKh_-UzXupI" type="github">
  <diagram name="Page-1" id="z4TCzo-ddGhJwr3VjxXd">
    <mxGraphModel>
      <root>
        <mxCell id="0" />
        <mxCell id="1" parent="0" />
      </root>
    </mxGraphModel>
  </diagram>
</mxfile>
